<?xml version="1.0" encoding="utf-8"?>
<!-- Generator: Adobe Illustrator 21.1.0, SVG Export Plug-In . SVG Version: 6.00 Build 0)  -->
<svg version="1.1" id="Calque_1" xmlns="http://www.w3.org/2000/svg" xmlns:xlink="http://www.w3.org/1999/xlink" x="0px" y="0px"
	 viewBox="0 0 500 500" style="enable-background:new 0 0 500 500;" xml:space="preserve">
<style type="text/css">
	.st0{opacity:0.5;fill:#F2F2F2;}
	.st1{fill:#2A1319;}
	.st2{opacity:0.8;fill:#F2F2F2;}
	.st3{display:none;}
	.st4{display:inline;fill:#2E161C;}
	.st5{display:inline;fill:#903E54;}
	.st6{fill:#2E161C;}
	.st7{fill:#903E54;}
	.st8{fill:none;}
	.st9{font-family:'BauhausStd-Bold';}
	.st10{font-size:57px;}
	.st11{fill:#7E354B;}
	.st12{font-family:'Montserrat-Regular';}
	.st13{font-size:28px;}
</style>
<g>
	<g>
		<path class="st0" d="M57.8,480c-28.9,0-55.3-26.1-55.3-54.9V20h495v405.1c0,30.2-22.6,54.9-50.3,54.9H57.8z"/>
		<path class="st1" d="M495,22.5v371.9V413v12.1c0,13.6-5,26.9-13.7,36.7c-9,10.1-21.1,15.6-34.1,15.6H57.8
			c-13.2,0-26.6-5.8-36.8-15.8c-10.2-10.1-16-23.4-16-36.5V413v-18.7V22.5H495 M500,17.5H0v376.9V413v12.1
			c0,30.4,27.4,57.4,57.8,57.4h389.4c30.4,0,52.8-27,52.8-57.4V413v-18.7V17.5L500,17.5z"/>
	</g>
	<path class="st2" d="M23,36v345v17v11c0,27.6,22.9,50,50.5,50h354c27.6,0,49.5-22.4,49.5-50v-11v-17V36H23z"/>
	<g class="st3">
		<path class="st4" d="M376.3,220.8c0,38.2-19.1,77.4-63.1,79.7v-40.2c24.2-2,36-14.6,36-37.7V84h12.9L376.3,220.8z"/>
		<path class="st5" d="M251.5,119.6c-30.2,0-53,22.6-53,59.5v73.1h20.9v-74.5c0-24.4,13.1-38.6,32.2-38.6
			c19.1,0,32.2,14.2,32.2,38.6v21.4c-6.6,2.6-16.1,5.8-22.8,5.6c-11.3-0.4-30.3-7.7-30.3-7.7l0,2.5c0,0,14.5,20.1,29.6,20.1
			c8.6,0,17.5-5.1,23.5-9.5v90.5c0,0,18.7,0.1,20.8,0l0-121.4C304.5,142.2,281.6,119.6,251.5,119.6z"/>
		<path class="st4" d="M219.3,260.6v40.1H189c-38.9,0-64-41.8-64-79.9L136.9,84h15.2v130.1c0,31.2,12.7,46.5,41,46.5H219.3z"/>
	</g>
	<g id="Arrow_1_">
		<g>
			<path class="st6" d="M192.8,257.8l13,19.7l-13,19.7H188c-38.3,0-63-41.1-63-78.6L136.7,84l7.5,8.7l7.5-8.7v128.1
				c0,30.7,12.5,45.7,40.3,45.7H192.8z"/>
			<path class="st7" d="M301.6,257.2l0-79.9c0-36.2-22.5-58.5-52.2-58.5c-29.7,0-52.2,22.3-52.2,58.5v80.2l13,19.7l-13,19.7h12.8
				c3.7-0.3,7.2-4.5,7.7-13.4v-1.4v-0.9V176c0-24,12.9-38,31.7-38c18.8,0,31.7,14,31.7,38c0,0,0,8.8,0,21.2
				c-6.5,2.6-15.9,5.8-22.5,5.6c-11.1-0.3-29.8-7.6-29.8-7.6l0,2.4c0,0,14.2,19.8,29.1,19.8c8.5,0,17.2-5.1,23.2-9.4
				c0,28.9,0.1,67.4-0.1,69.7c-0.2,3.9-0.3,19.4,9,19.3c2,0,11.5,0,11.5,0l13.1-19.9L301.6,257.2z"/>
			<path class="st6" d="M361,92.7l-6.4-8.7l-6.4,8.7v127.6c0,22.8-4.2,34.9-28,36.9h-14.3l13,19.8l-13,19.8h14.3
				c43.3-2.2,54.7-40.8,54.7-78.3L361,92.7z"/>
		</g>
	</g>
	<rect x="22.5" y="332" class="st8" width="455" height="75"/>
	<text transform="matrix(0.9621 0 0 1 90.0315 371.8869)"><tspan x="0" y="0" class="st1 st9 st10">Lille </tspan><tspan x="120.4" y="0" class="st11 st9 st10">Aux</tspan><tspan x="209" y="0" class="st1 st9 st10"> Jeux</tspan><tspan x="3.8" y="33.6" class="st1 st12 st13">ECOLE DE CROUPIERS</tspan></text>
</g>
</svg>
