<?xml version="1.0" encoding="utf-8"?>
<!-- Generator: Adobe Illustrator 16.0.0, SVG Export Plug-In . SVG Version: 6.00 Build 0)  -->
<!DOCTYPE svg PUBLIC "-//W3C//DTD SVG 1.1//EN" "http://www.w3.org/Graphics/SVG/1.1/DTD/svg11.dtd">
<svg version="1.1" id="Calque_1" xmlns="http://www.w3.org/2000/svg" xmlns:xlink="http://www.w3.org/1999/xlink" x="0px" y="0px"
	 width="566.93px" height="510.24px" viewBox="0 0 566.93 510.24" enable-background="new 0 0 566.93 510.24" xml:space="preserve">
<g>
	<g>
		<path opacity="0.5" fill="#F2F2F2" enable-background="new    " d="M87.329,489.831c-29.492,0-56.433-26.635-56.433-56.024V20.41
			h505.138v413.396c0,30.818-23.063,56.024-51.331,56.024H87.329z"/>
		<path fill="#2A1319" d="M533.482,22.961v379.517v18.981v12.348c0,13.879-5.103,27.451-13.98,37.452
			c-9.185,10.307-21.532,15.919-34.799,15.919H87.329c-13.471,0-27.145-5.919-37.554-16.123
			c-10.409-10.308-16.328-23.88-16.328-37.248v-12.348v-19.083V22.961H533.482 M538.585,17.858H28.345v384.619v18.981v12.348
			c0,31.022,27.961,58.576,58.984,58.576h397.375c31.023,0,53.882-27.554,53.882-58.576v-12.348v-19.083V17.858L538.585,17.858z"/>
	</g>
	<path opacity="0.8" fill="#F2F2F2" enable-background="new    " d="M51.816,36.737v352.066v17.348v11.226
		c0,28.165,23.369,51.024,51.534,51.024h361.25c28.165,0,50.514-22.859,50.514-51.024v-11.226v-17.348V36.737H51.816z"/>
	<g id="Arrow_1_">
		<g>
			<path fill="#2E161C" d="M225.145,263.08l13.266,20.104l-13.266,20.104h-4.898c-39.084,0-64.29-41.941-64.29-80.21L167.896,85.72
				l7.654,8.878l7.653-8.878v130.724c0,31.328,12.756,46.636,41.125,46.636H225.145L225.145,263.08z"/>
			<path fill="#903E54" d="M336.172,262.468v-81.536c0-36.941-22.961-59.698-53.268-59.698c-30.308,0-53.269,22.757-53.269,59.698
				v81.843l13.266,20.104l-13.266,20.104h13.062c3.776-0.307,7.348-4.593,7.858-13.675v-1.429v-0.919V179.604
				c0-24.491,13.164-38.778,32.349-38.778c19.184,0,32.348,14.287,32.348,38.778c0,0,0,8.98,0,21.635
				c-6.633,2.653-16.225,5.919-22.959,5.715c-11.328-0.307-30.411-7.756-30.411-7.756v2.449c0,0,14.491,20.205,29.696,20.205
				c8.674,0,17.553-5.204,23.674-9.593c0,29.492,0.104,68.781-0.102,71.128c-0.203,3.979-0.307,19.798,9.186,19.695
				c2.041,0,11.734,0,11.734,0l13.369-20.308L336.172,262.468z"/>
			<path fill="#2E161C" d="M396.789,94.598l-6.531-8.878l-6.531,8.878v130.214c0,23.267-4.285,35.614-28.572,37.655h-14.594
				l13.266,20.205l-13.266,20.206h14.594c44.186-2.245,55.82-41.636,55.82-79.903L396.789,94.598z"/>
		</g>
	</g>
	<g enable-background="new    ">
		<path fill="#2A1319" d="M143.645,380.504h-7.443c-9.459,0-13.937-3.723-13.937-13.146v-27.571h9.738v26.641
			c0,3.315,1.063,4.305,4.981,4.305h6.66V380.504z"/>
		<path fill="#2A1319" d="M152.036,339.09c2.854,0,5.094,2.268,5.094,5.293c0,3.024-2.239,5.293-5.094,5.293
			s-5.093-2.269-5.093-5.293C146.943,341.357,149.182,339.09,152.036,339.09z M156.514,380.504h-8.955v-28.269h8.955V380.504z"/>
		<path fill="#2A1319" d="M163.116,380.504v-40.717h8.955v40.717H163.116z"/>
		<path fill="#2A1319" d="M178.674,380.504v-40.717h8.955v40.717H178.674z"/>
		<path fill="#2A1319" d="M206.153,370.208l-3.414-5.584l7.332-5.002c-1.344-0.872-2.407-0.989-3.471-0.989
			c-3.693,0-5.709,3.897-5.709,7.271c0,3.49,2.407,7.154,6.045,7.154c3.358,0,6.66-3.083,8.004-6.34l6.437,3.432
			c-2.575,6.398-8.283,11.052-15.056,11.052c-7.5,0-14.049-6.689-14.049-14.833c0-8.143,6.549-14.832,14.049-14.832
			c6.269,0,10.41,3.49,13.32,9.016L206.153,370.208z"/>
		<path fill="#903E54" d="M240.961,380.504v-26.757c0-8.725,5.54-14.657,13.712-14.657s13.713,5.933,13.713,14.657v26.757h-9.739
			v-14.192h-6.101v-9.19h6.101v-3.839c0-3.024-1.566-5.003-3.974-5.003c-2.406,0-3.974,1.979-3.974,5.003v27.222H240.961z"/>
		<path fill="#903E54" d="M282.71,368.405c0,2.443,1.175,3.955,3.078,3.955s3.079-1.512,3.079-3.955v-16.17h8.619v16.17
			c0,7.329-4.086,12.797-11.698,12.797s-11.697-5.468-11.697-12.797v-16.17h8.619V368.405z"/>
		<path fill="#903E54" d="M323.396,360.378c-4.198,0-6.885,1.28-6.885,5.991c0,4.712,2.687,5.991,6.885,5.991v8.144
			c-4.926,0-8.508-0.059-11.194-4.712c-2.687,4.653-6.269,4.712-11.194,4.712v-8.144c4.198,0,6.885-1.279,6.885-5.991
			c0-4.711-2.687-5.991-6.885-5.991v-8.143c4.926,0,8.508,0.058,11.194,4.711c2.687-4.653,6.269-4.711,11.194-4.711V360.378z"/>
		<path fill="#2A1319" d="M340.182,370.732h3.918c3.917,0,4.98-0.989,4.98-4.305v-26.641h9.738v25.012
			c0,14.891-5.429,15.705-18.637,15.705V370.732z"/>
		<path fill="#2A1319" d="M377.174,370.208l-3.414-5.584l7.332-5.002c-1.343-0.872-2.406-0.989-3.47-0.989
			c-3.694,0-5.709,3.897-5.709,7.271c0,3.49,2.407,7.154,6.045,7.154c3.358,0,6.66-3.083,8.003-6.34l6.438,3.432
			c-2.575,6.398-8.284,11.052-15.057,11.052c-7.5,0-14.048-6.689-14.048-14.833c0-8.143,6.548-14.832,14.048-14.832
			c6.27,0,10.41,3.49,13.321,9.016L377.174,370.208z"/>
		<path fill="#2A1319" d="M403.98,368.405c0,2.443,1.175,3.955,3.078,3.955c1.902,0,3.078-1.512,3.078-3.955v-16.17h8.619v16.17
			c0,7.329-4.086,12.797-11.697,12.797c-7.612,0-11.697-5.468-11.697-12.797v-16.17h8.619V368.405z"/>
		<path fill="#2A1319" d="M444.666,360.378c-4.197,0-6.884,1.28-6.884,5.991c0,4.712,2.687,5.991,6.884,5.991v8.144
			c-4.925,0-8.507-0.059-11.193-4.712c-2.687,4.653-6.269,4.712-11.193,4.712v-8.144c4.197,0,6.884-1.279,6.884-5.991
			c0-4.711-2.687-5.991-6.884-5.991v-8.143c4.925,0,8.507,0.058,11.193,4.711c2.687-4.653,6.269-4.711,11.193-4.711V360.378z"/>
		<path fill="#2A1319" d="M144.437,411.675v1.829h-13.607v-20.001h13.195v1.828h-11.161v7.115h9.951v1.8h-9.951v7.429H144.437z"/>
		<path fill="#2A1319" d="M152.313,412.361c-1.53-0.876-2.73-2.091-3.601-3.644c-0.871-1.553-1.306-3.29-1.306-5.215
			c0-1.924,0.435-3.661,1.306-5.215c0.87-1.552,2.075-2.767,3.614-3.643c1.54-0.876,3.263-1.314,5.169-1.314
			c1.43,0,2.749,0.248,3.958,0.743c1.21,0.495,2.236,1.219,3.079,2.171l-1.292,1.344c-1.503-1.581-3.399-2.372-5.69-2.372
			c-1.521,0-2.905,0.362-4.151,1.086s-2.222,1.715-2.928,2.972c-0.705,1.257-1.058,2.667-1.058,4.229
			c0,1.563,0.353,2.972,1.058,4.229c0.706,1.257,1.682,2.248,2.928,2.972s2.63,1.085,4.151,1.085c2.31,0,4.206-0.8,5.69-2.399
			l1.292,1.343c-0.843,0.952-1.874,1.682-3.093,2.186c-1.219,0.505-2.543,0.758-3.972,0.758
			C155.562,413.676,153.843,413.237,152.313,412.361z"/>
		<path fill="#2A1319" d="M171.693,412.346c-1.549-0.886-2.759-2.101-3.629-3.644s-1.306-3.275-1.306-5.2
			c0-1.924,0.436-3.657,1.306-5.2s2.08-2.757,3.629-3.643s3.275-1.329,5.182-1.329s3.624,0.438,5.155,1.314
			c1.529,0.876,2.735,2.091,3.614,3.643c0.88,1.554,1.32,3.291,1.32,5.215c0,1.925-0.44,3.662-1.32,5.215
			c-0.879,1.553-2.085,2.768-3.614,3.644c-1.531,0.876-3.249,1.314-5.155,1.314S173.242,413.232,171.693,412.346z M180.999,410.718
			c1.228-0.714,2.189-1.704,2.887-2.972c0.696-1.267,1.044-2.681,1.044-4.243c0-1.562-0.348-2.976-1.044-4.243
			c-0.697-1.267-1.659-2.257-2.887-2.972c-1.229-0.714-2.603-1.071-4.124-1.071s-2.899,0.357-4.137,1.071
			c-1.237,0.715-2.209,1.705-2.914,2.972c-0.706,1.268-1.059,2.682-1.059,4.243c0,1.563,0.353,2.977,1.059,4.243
			c0.705,1.268,1.677,2.258,2.914,2.972c1.237,0.715,2.615,1.071,4.137,1.071S179.771,411.432,180.999,410.718z"/>
		<path fill="#2A1319" d="M191.527,393.503h2.034v18.172h10.776v1.829h-12.811V393.503z"/>
		<path fill="#2A1319" d="M221.327,411.675v1.829h-13.608v-20.001h13.196v1.828h-11.161v7.115h9.951v1.8h-9.951v7.429H221.327z"/>
		<path fill="#2A1319" d="M233.313,393.503h7.835c2.034,0,3.83,0.424,5.388,1.271s2.768,2.028,3.629,3.543
			c0.861,1.514,1.292,3.243,1.292,5.186c0,1.943-0.431,3.672-1.292,5.187s-2.071,2.695-3.629,3.543s-3.354,1.271-5.388,1.271h-7.835
			V393.503z M241.037,411.675c1.687,0,3.161-0.347,4.426-1.043c1.265-0.694,2.245-1.657,2.941-2.886s1.045-2.643,1.045-4.243
			c0-1.6-0.349-3.015-1.045-4.243s-1.677-2.19-2.941-2.886s-2.739-1.043-4.426-1.043h-5.69v16.344H241.037z"/>
		<path fill="#2A1319" d="M269.627,411.675v1.829H256.02v-20.001h13.195v1.828h-11.161v7.115h9.951v1.8h-9.951v7.429H269.627z"/>
		<path fill="#2A1319" d="M284.814,412.361c-1.529-0.876-2.73-2.091-3.601-3.644s-1.306-3.29-1.306-5.215
			c0-1.924,0.436-3.661,1.306-5.215c0.87-1.552,2.075-2.767,3.614-3.643c1.54-0.876,3.263-1.314,5.169-1.314
			c1.43,0,2.749,0.248,3.958,0.743c1.21,0.495,2.236,1.219,3.08,2.171l-1.293,1.344c-1.502-1.581-3.399-2.372-5.689-2.372
			c-1.521,0-2.906,0.362-4.152,1.086s-2.222,1.715-2.928,2.972c-0.705,1.257-1.058,2.667-1.058,4.229
			c0,1.563,0.353,2.972,1.058,4.229c0.706,1.257,1.682,2.248,2.928,2.972s2.631,1.085,4.152,1.085c2.309,0,4.205-0.8,5.689-2.399
			l1.293,1.343c-0.844,0.952-1.875,1.682-3.094,2.186c-1.219,0.505-2.543,0.758-3.972,0.758
			C288.063,413.676,286.346,413.237,284.814,412.361z"/>
		<path fill="#2A1319" d="M314.519,413.504l-4.398-6.429c-0.495,0.057-1.009,0.085-1.54,0.085h-5.168v6.344h-2.034v-20.001h7.202
			c2.456,0,4.381,0.609,5.773,1.828c1.393,1.22,2.09,2.896,2.09,5.029c0,1.562-0.381,2.881-1.141,3.957
			c-0.762,1.076-1.848,1.853-3.258,2.329l4.7,6.857H314.519z M312.896,404.046c1.008-0.876,1.512-2.104,1.512-3.686
			c0-1.619-0.504-2.862-1.512-3.729c-1.008-0.866-2.465-1.3-4.371-1.3h-5.113v10.029h5.113
			C310.432,405.36,311.889,404.923,312.896,404.046z"/>
		<path fill="#2A1319" d="M324.484,412.346c-1.55-0.886-2.76-2.101-3.629-3.644c-0.871-1.543-1.307-3.275-1.307-5.2
			c0-1.924,0.436-3.657,1.307-5.2c0.869-1.543,2.079-2.757,3.629-3.643c1.548-0.886,3.275-1.329,5.182-1.329
			c1.905,0,3.623,0.438,5.154,1.314c1.529,0.876,2.735,2.091,3.615,3.643c0.879,1.554,1.319,3.291,1.319,5.215
			c0,1.925-0.44,3.662-1.319,5.215c-0.88,1.553-2.086,2.768-3.615,3.644c-1.531,0.876-3.249,1.314-5.154,1.314
			C327.76,413.676,326.032,413.232,324.484,412.346z M333.789,410.718c1.229-0.714,2.189-1.704,2.887-2.972
			c0.696-1.267,1.045-2.681,1.045-4.243c0-1.562-0.349-2.976-1.045-4.243c-0.697-1.267-1.658-2.257-2.887-2.972
			c-1.229-0.714-2.603-1.071-4.123-1.071c-1.521,0-2.9,0.357-4.138,1.071c-1.237,0.715-2.208,1.705-2.914,2.972
			c-0.706,1.268-1.058,2.682-1.058,4.243c0,1.563,0.352,2.977,1.058,4.243c0.706,1.268,1.677,2.258,2.914,2.972
			c1.237,0.715,2.616,1.071,4.138,1.071C331.187,411.789,332.561,411.432,333.789,410.718z"/>
		<path fill="#2A1319" d="M346.242,411.446c-1.393-1.485-2.09-3.647-2.09-6.486v-11.457h2.035v11.372c0,2.324,0.504,4.058,1.512,5.2
			s2.465,1.714,4.371,1.714c1.924,0,3.391-0.571,4.398-1.714s1.512-2.876,1.512-5.2v-11.372h1.979v11.457
			c0,2.839-0.692,5.001-2.075,6.486c-1.385,1.486-3.322,2.229-5.814,2.229S347.635,412.932,346.242,411.446z"/>
		<path fill="#2A1319" d="M379.065,395.331c1.393,1.22,2.089,2.896,2.089,5.029s-0.696,3.805-2.089,5.015
			c-1.394,1.21-3.317,1.814-5.772,1.814h-5.168v6.314h-2.035v-20.001h7.203C375.748,393.503,377.672,394.112,379.065,395.331z
			 M377.608,404.032c1.008-0.867,1.513-2.091,1.513-3.672c0-1.619-0.505-2.862-1.513-3.729c-1.008-0.866-2.465-1.3-4.371-1.3h-5.112
			v10.001h5.112C375.144,405.332,376.601,404.898,377.608,404.032z"/>
		<path fill="#2A1319" d="M385.553,393.503h2.035v20.001h-2.035V393.503z"/>
		<path fill="#2A1319" d="M407.463,411.675v1.829h-13.607v-20.001h13.195v1.828H395.89v7.115h9.951v1.8h-9.951v7.429H407.463z"/>
		<path fill="#2A1319" d="M425.387,413.504l-4.398-6.429c-0.496,0.057-1.009,0.085-1.54,0.085h-5.168v6.344h-2.034v-20.001h7.202
			c2.456,0,4.38,0.609,5.772,1.828c1.393,1.22,2.09,2.896,2.09,5.029c0,1.562-0.381,2.881-1.141,3.957
			c-0.761,1.076-1.847,1.853-3.258,2.329l4.701,6.857H425.387z M423.764,404.046c1.008-0.876,1.513-2.104,1.513-3.686
			c0-1.619-0.505-2.862-1.513-3.729c-1.008-0.866-2.465-1.3-4.371-1.3h-5.112v10.029h5.112
			C421.299,405.36,422.756,404.923,423.764,404.046z"/>
		<path fill="#2A1319" d="M433.316,412.961c-1.311-0.476-2.322-1.104-3.037-1.886l0.797-1.629c0.697,0.725,1.623,1.311,2.777,1.758
			s2.346,0.671,3.573,0.671c1.723,0,3.015-0.328,3.876-0.985s1.293-1.51,1.293-2.558c0-0.8-0.234-1.438-0.701-1.914
			c-0.468-0.477-1.041-0.843-1.719-1.101c-0.678-0.257-1.621-0.538-2.832-0.843c-1.447-0.381-2.602-0.747-3.463-1.1
			s-1.6-0.891-2.213-1.615c-0.615-0.724-0.922-1.704-0.922-2.942c0-1.01,0.257-1.929,0.771-2.758
			c0.513-0.828,1.301-1.49,2.364-1.985c1.063-0.495,2.382-0.743,3.959-0.743c1.1,0,2.176,0.157,3.229,0.472s1.966,0.748,2.735,1.3
			l-0.688,1.686c-0.807-0.552-1.668-0.966-2.584-1.242s-1.814-0.415-2.693-0.415c-1.688,0-2.956,0.339-3.809,1.015
			c-0.852,0.677-1.277,1.548-1.277,2.614c0,0.801,0.233,1.443,0.701,1.929c0.467,0.486,1.053,0.857,1.759,1.114
			c0.706,0.258,1.653,0.539,2.845,0.843c1.412,0.362,2.553,0.72,3.424,1.072c0.869,0.353,1.607,0.886,2.213,1.6
			c0.604,0.715,0.906,1.682,0.906,2.9c0,1.01-0.261,1.929-0.783,2.758c-0.522,0.828-1.324,1.485-2.405,1.971
			c-1.081,0.486-2.41,0.729-3.986,0.729C435.998,413.676,434.627,413.437,433.316,412.961z"/>
	</g>
	
		<text transform="matrix(0.9621 0 0 1 238.4292 379.5037)" display="none" fill="#7E354B" enable-background="new    " font-family="'BauhausStd-Bold'" font-size="58.1674">Aux</text>
	
		<text transform="matrix(0.9621 0 0 1 325.417 379.5037)" display="none" fill="#2A1319" enable-background="new    " font-family="'BauhausStd-Bold'" font-size="58.1674"> Jeux</text>
	
		<text transform="matrix(0.9621 0 0 1 123.9512 413.7917)" display="none" fill="#2A1319" enable-background="new    " font-family="'Montserrat-Regular'" font-size="28.5735">ECOLE DE CROUPIERS</text>
</g>
</svg>
